<svg xmlns="http://www.w3.org/2000/svg" xmlns:xlink="http://www.w3.org/1999/xlink" width="300" zoomAndPan="magnify" viewBox="0 0 224.87999 89.999999" height="120" preserveAspectRatio="xMidYMid meet" version="1.2"><defs><clipPath id="0df2682bb9"><path d="M 17.148438 0.0234375 L 62.125 0.0234375 L 62.125 89.976562 L 17.148438 89.976562 Z M 17.148438 0.0234375 "/></clipPath><clipPath id="22ac36f3cf"><path d="M 17.148438 22.511719 C 17.148438 10.09375 27.21875 0.0234375 39.636719 0.0234375 C 52.058594 0.0234375 62.125 10.09375 62.125 22.511719 L 62.125 67.488281 C 62.125 79.90625 52.058594 89.976562 39.636719 89.976562 C 27.21875 89.976562 17.148438 79.90625 17.148438 67.488281 Z M 17.148438 22.511719 "/></clipPath><clipPath id="ecab990069"><path d="M 68.550781 0.0234375 L 113.527344 0.0234375 L 113.527344 89.976562 L 68.550781 89.976562 Z M 68.550781 0.0234375 "/></clipPath><clipPath id="1e0f7a2d4a"><path d="M 68.550781 22.511719 C 68.550781 10.09375 78.617188 0.0234375 91.039062 0.0234375 C 103.457031 0.0234375 113.527344 10.09375 113.527344 22.511719 L 113.527344 67.488281 C 113.527344 79.90625 103.457031 89.976562 91.039062 89.976562 C 78.617188 89.976562 68.550781 79.90625 68.550781 67.488281 Z M 68.550781 22.511719 "/></clipPath><clipPath id="0240c57744"><path d="M 170.910156 0.0234375 L 215.886719 0.0234375 L 215.886719 89.976562 L 170.910156 89.976562 Z M 170.910156 0.0234375 "/></clipPath><clipPath id="b646b181a2"><path d="M 170.910156 22.511719 C 170.910156 10.09375 180.976562 0.0234375 193.398438 0.0234375 C 205.816406 0.0234375 215.886719 10.09375 215.886719 22.511719 L 215.886719 67.488281 C 215.886719 79.90625 205.816406 89.976562 193.398438 89.976562 C 180.976562 89.976562 170.910156 79.90625 170.910156 67.488281 Z M 170.910156 22.511719 "/></clipPath><clipPath id="28f0b9f2ed"><path d="M 119.949219 0.0234375 L 164.925781 0.0234375 L 164.925781 89.976562 L 119.949219 89.976562 Z M 119.949219 0.0234375 "/></clipPath><clipPath id="1aa3b25c30"><path d="M 119.949219 22.511719 C 119.949219 10.09375 130.015625 0.0234375 142.4375 0.0234375 C 154.855469 0.0234375 164.925781 10.09375 164.925781 22.511719 L 164.925781 67.488281 C 164.925781 79.90625 154.855469 89.976562 142.4375 89.976562 C 130.015625 89.976562 119.949219 79.90625 119.949219 67.488281 Z M 119.949219 22.511719 "/></clipPath></defs><g id="0a4153530c"><g clip-rule="nonzero" clip-path="url(#0df2682bb9)"><g clip-rule="nonzero" clip-path="url(#22ac36f3cf)"><path style=" stroke:none;fill-rule:nonzero;fill:#641d3a;fill-opacity:1;" d="M 17.148438 89.976562 L 17.148438 0.0234375 L 62.125 0.0234375 L 62.125 89.976562 Z M 17.148438 89.976562 "/></g></g><g clip-rule="nonzero" clip-path="url(#ecab990069)"><g clip-rule="nonzero" clip-path="url(#1e0f7a2d4a)"><path style=" stroke:none;fill-rule:nonzero;fill:#6b3c3e;fill-opacity:1;" d="M 68.550781 89.976562 L 68.550781 0.0234375 L 113.527344 0.0234375 L 113.527344 89.976562 Z M 68.550781 89.976562 "/></g></g><g clip-rule="nonzero" clip-path="url(#0240c57744)"><g clip-rule="nonzero" clip-path="url(#b646b181a2)"><path style=" stroke:none;fill-rule:nonzero;fill:#ddbfb8;fill-opacity:1;" d="M 170.910156 89.976562 L 170.910156 0.0234375 L 215.886719 0.0234375 L 215.886719 89.976562 Z M 170.910156 89.976562 "/></g></g><g clip-rule="nonzero" clip-path="url(#28f0b9f2ed)"><g clip-rule="nonzero" clip-path="url(#1aa3b25c30)"><path style=" stroke:none;fill-rule:nonzero;fill:#854d50;fill-opacity:1;" d="M 119.949219 89.976562 L 119.949219 0.0234375 L 164.925781 0.0234375 L 164.925781 89.976562 Z M 119.949219 89.976562 "/></g></g></g></svg>